<?xml version="1.0" encoding="utf-8"?>
<!-- Generator: Adobe Illustrator 19.1.0, SVG Export Plug-In . SVG Version: 6.00 Build 0)  -->
<svg version="1.1" id="Layer_1" xmlns="http://www.w3.org/2000/svg" xmlns:xlink="http://www.w3.org/1999/xlink" x="0px" y="0px"
	 viewBox="-183 185 32 32" style="enable-background:new -183 185 32 32;" xml:space="preserve">
<path d="M-179,203h19.2l-4.6,4.6c-0.4,0.4-0.6,0.9-0.6,1.4c0,1,0.8,2,2,2c0.5,0,1-0.2,1.4-0.6l8-8c0.3-0.3,0.7-0.7,0.7-1.5
	s-0.3-1.1-0.6-1.4l-8-8c-0.4-0.4-0.8-0.6-1.4-0.6c-1.2,0-2,1-2,2c0,0.5,0.2,1,0.6,1.4l4.6,4.6H-179c-1.1,0-2,0.9-2,2
	S-180.1,203-179,203z"/>
</svg>
